<?xml version="1.0" encoding="UTF-8"?>
<svg version="1.1" xmlns="http://www.w3.org/2000/svg" width="1024" height="1024">
<path d="M0,0 L1024,0 L1024,1024 L0,1024 Z " fill="#7042A3" transform="translate(0,0)"/>
<path d="M0,0 L224,0 L224,16 L256,16 L256,32 L272,32 L272,48 L288,48 L288,64 L320,64 L320,80 L336,80 L336,96 L368,96 L368,112 L384,112 L384,144 L400,144 L400,160 L416,160 L416,192 L432,192 L432,224 L416,224 L416,240 L400,240 L400,272 L384,272 L384,288 L352,288 L352,304 L336,304 L336,320 L304,320 L304,336 L272,336 L272,368 L304,368 L304,384 L384,384 L384,400 L416,400 L416,416 L464,416 L464,432 L480,432 L480,496 L496,496 L496,624 L-64,624 L-64,528 L-96,528 L-96,512 L-128,512 L-128,496 L-144,496 L-144,480 L-160,480 L-160,464 L-192,464 L-192,448 L-208,448 L-208,432 L-224,432 L-224,416 L-240,416 L-240,400 L-256,400 L-256,384 L-272,384 L-272,368 L-288,368 L-288,336 L-336,336 L-336,240 L-272,240 L-272,176 L-240,176 L-240,288 L-224,288 L-224,304 L-208,304 L-208,320 L-192,320 L-192,336 L-176,336 L-176,352 L-160,352 L-160,368 L-128,368 L-128,384 L-112,384 L-112,400 L-80,400 L-80,416 L-16,416 L-16,400 L16,400 L16,384 L96,384 L96,368 L128,368 L128,336 L96,336 L96,320 L64,320 L64,304 L48,304 L48,288 L16,288 L16,272 L0,272 L0,240 L-16,240 L-16,224 L-32,224 L-32,208 L-48,208 L-48,160 L-64,160 L-64,32 L-32,32 L-32,16 L0,16 Z " fill="#3CA370" transform="translate(432,400)"/>
<path d="M0,0 L224,0 L224,16 L256,16 L256,32 L272,32 L272,48 L288,48 L288,64 L320,64 L320,80 L336,80 L336,96 L368,96 L368,112 L384,112 L384,144 L400,144 L400,160 L416,160 L416,192 L432,192 L432,224 L416,224 L416,240 L400,240 L400,272 L384,272 L384,288 L352,288 L352,304 L336,304 L336,320 L304,320 L304,336 L272,336 L272,368 L288,368 L288,384 L272,384 L272,400 L128,400 L128,384 L112,384 L112,368 L128,368 L128,336 L96,336 L96,320 L64,320 L64,304 L48,304 L48,288 L16,288 L16,272 L0,272 L0,240 L-16,240 L-16,224 L-32,224 L-32,208 L-48,208 L-48,160 L-64,160 L-64,32 L-32,32 L-32,16 L0,16 Z " fill="#F1A55D" transform="translate(432,400)"/>
<path d="M0,0 L160,0 L160,16 L208,16 L208,32 L240,32 L240,48 L256,48 L256,64 L288,64 L288,80 L304,80 L304,112 L320,112 L320,128 L336,128 L336,144 L352,144 L352,192 L368,192 L368,336 L352,336 L352,384 L336,384 L336,368 L320,368 L320,336 L304,336 L304,320 L288,320 L288,288 L272,288 L272,272 L240,272 L240,256 L224,256 L224,240 L192,240 L192,224 L176,224 L176,208 L160,208 L160,192 L128,192 L128,176 L-96,176 L-96,192 L-128,192 L-128,208 L-160,208 L-160,176 L-144,176 L-144,144 L-128,144 L-128,112 L-112,112 L-112,96 L-96,96 L-96,80 L-80,80 L-80,64 L-64,64 L-64,48 L-48,48 L-48,32 L-32,32 L-32,16 L0,16 Z " fill="#141414" transform="translate(528,224)"/>
<path d="M0,0 L32,0 L32,112 L48,112 L48,128 L64,128 L64,144 L80,144 L80,160 L96,160 L96,176 L112,176 L112,192 L144,192 L144,208 L160,208 L160,224 L192,224 L192,240 L224,240 L224,256 L208,256 L208,272 L192,272 L192,352 L176,352 L176,336 L144,336 L144,320 L128,320 L128,304 L112,304 L112,288 L80,288 L80,272 L64,272 L64,256 L48,256 L48,240 L32,240 L32,224 L16,224 L16,208 L0,208 L0,192 L-16,192 L-16,160 L-64,160 L-64,64 L0,64 Z " fill="#3CA370" transform="translate(160,576)"/>
<path d="M0,0 L16,0 L16,16 L32,16 L32,32 L64,32 L64,48 L80,48 L80,80 L96,80 L96,96 L112,96 L112,112 L128,112 L128,160 L144,160 L144,304 L128,304 L128,352 L112,352 L112,336 L96,336 L96,304 L80,304 L80,288 L64,288 L64,256 L48,256 L48,240 L16,240 L16,128 L0,128 Z " fill="#0B0B0B" transform="translate(752,256)"/>
<path d="M0,0 L32,0 L32,176 L-16,176 L-16,160 L-64,160 L-64,64 L0,64 Z " fill="#CA8C52" transform="translate(160,576)"/>
<path d="M0,0 L16,0 L16,16 L32,16 L32,48 L48,48 L48,64 L64,64 L64,96 L80,96 L80,128 L64,128 L64,144 L48,144 L48,176 L32,176 L32,192 L0,192 Z " fill="#DD9959" transform="translate(784,496)"/>
<path d="M0,0 L32,0 L32,16 L48,16 L48,80 L64,80 L64,208 L32,208 L32,80 L16,80 L16,16 L0,16 Z " fill="#32895E" transform="translate(864,816)"/>
<path d="M0,0 L16,0 L16,16 L128,16 L128,0 L144,0 L144,32 L0,32 Z " fill="#DD9959" transform="translate(560,736)"/>
<path d="M0,0 L16,0 L16,128 L0,128 Z " fill="#379667" transform="translate(880,896)"/>
<path d="M0,0 L16,0 L16,96 L0,96 Z " fill="#389265" transform="translate(800,928)"/>
<path d="M0,0 L32,0 L32,48 L0,48 Z " fill="#DD9959" transform="translate(160,576)"/>
<path d="M0,0 L16,0 L16,80 L0,80 Z " fill="#389265" transform="translate(352,848)"/>
<path d="M0,0 L80,0 L80,16 L0,16 Z " fill="#DD9959" transform="translate(96,704)"/>
<path d="M0,0 L80,0 L80,16 L0,16 Z " fill="#DD9959" transform="translate(96,672)"/>
<path d="M0,0 L80,0 L80,16 L0,16 Z " fill="#DD9959" transform="translate(96,640)"/>
<path d="M0,0 L80,0 L80,16 L0,16 Z " fill="#0B0B0B" transform="translate(480,608)"/>
<path d="M0,0 L48,0 L48,32 L16,32 L16,16 L0,16 Z " fill="#FFFFFF" transform="translate(560,464)"/>
<path d="M0,0 L48,0 L48,16 L32,16 L32,32 L0,32 Z " fill="#FFFFFF" transform="translate(416,464)"/>
<path d="M0,0 L16,0 L16,64 L0,64 Z " fill="#379667" transform="translate(864,832)"/>
<path d="M0,0 L16,0 L16,64 L0,64 Z " fill="#41B079" transform="translate(192,688)"/>
<path d="M0,0 L48,0 L48,16 L0,16 Z " fill="#41B079" transform="translate(144,752)"/>
<path d="M0,0 L48,0 L48,16 L0,16 Z " fill="#DD9959" transform="translate(144,736)"/>
<path d="M0,0 L16,0 L16,16 L0,16 Z " fill="#389265" transform="translate(368,832)"/>
<path d="M0,0 L16,0 L16,16 L0,16 Z " fill="#379667" transform="translate(848,816)"/>
<path d="M0,0 L16,0 L16,16 L0,16 Z " fill="#389265" transform="translate(384,816)"/>
<path d="M0,0 L16,0 L16,16 L0,16 Z " fill="#379667" transform="translate(832,800)"/>
<path d="M0,0 L16,0 L16,16 L0,16 Z " fill="#DD9959" transform="translate(688,784)"/>
<path d="M0,0 L16,0 L16,16 L0,16 Z " fill="#DD9959" transform="translate(704,768)"/>
<path d="M0,0 L16,0 L16,16 L0,16 Z " fill="#41B079" transform="translate(128,736)"/>
<path d="M0,0 L16,0 L16,16 L0,16 Z " fill="#0B0B0B" transform="translate(560,592)"/>
<path d="M0,0 L16,0 L16,16 L0,16 Z " fill="#0B0B0B" transform="translate(464,592)"/>
<path d="M0,0 L16,0 L16,16 L0,16 Z " fill="#0B0B0B" transform="translate(576,576)"/>
<path d="M0,0 L16,0 L16,16 L0,16 Z " fill="#0B0B0B" transform="translate(448,576)"/>
<path d="M0,0 L16,0 L16,16 L0,16 Z " fill="#0B0B0B" transform="translate(560,480)"/>
<path d="M0,0 L16,0 L16,16 L0,16 Z " fill="#0B0B0B" transform="translate(448,480)"/>
</svg>
